<svg xmlns="http://www.w3.org/2000/svg" viewBox="0 0 200 200" width="200" height="200">
<g transform="translate(100,100)">
<polygon points="0,-90 77.94,-45 77.94,45 0,90 -77.94,45 -77.94,-45" fill="none" stroke="#8a1c1c" stroke-width="3"/>
<polygon points="0,-68 58.88,-34 58.88,34 0,68 -58.88,34 -58.88,-34" fill="none" stroke="#9a2222" stroke-width="2.5" transform="rotate(30)"/>
<polygon points="0,-48 41.57,-24 41.57,24 0,48 -41.57,24 -41.57,-24" fill="none" stroke="#aa2828" stroke-width="2"/>
<polygon points="0,-30 25.98,-15 25.98,15 0,30 -25.98,15 -25.98,-15" fill="none" stroke="#bb3030" stroke-width="1.5" transform="rotate(30)"/>
<polygon points="0,-14 12.12,-7 12.12,7 0,14 -12.12,7 -12.12,-7" fill="none" stroke="#cc3838" stroke-width="1"/>
</g>
</svg>
